<svg width="20" height="20" viewBox="0 0 20 20" fill="none" xmlns="http://www.w3.org/2000/svg">
<path d="M5.08236 15.8333C3.99894 15.7267 3.18731 15.4013 2.643 14.857C1.66669 13.8807 1.66669 12.3093 1.66669 9.16666V8.74999C1.66669 5.60729 1.66669 4.03595 2.643 3.05964C3.61931 2.08333 5.19065 2.08333 8.33335 2.08333H11.6667C14.8094 2.08333 16.3808 2.08333 17.357 3.05964C18.3334 4.03595 18.3334 5.60729 18.3334 8.74999V9.16666C18.3334 12.3093 18.3334 13.8807 17.357 14.857C16.3808 15.8333 14.8094 15.8333 11.6667 15.8333C11.1996 15.8437 10.8276 15.8792 10.4622 15.9625C9.46352 16.1924 8.53877 16.7034 7.62491 17.1491C6.32276 17.784 5.67169 18.1015 5.2631 17.8042C4.48143 17.2221 5.24547 15.4182 5.41669 14.5833" stroke="#3C6FE2" stroke-width="1.5" stroke-linecap="round"/>
</svg>
