<svg width="24" height="24" viewBox="0 0 24 24" fill="none" xmlns="http://www.w3.org/2000/svg">
<path d="M16.56 3H6.48001C6.0981 3 5.73183 3.15804 5.46177 3.43934C5.19172 3.72064 5.04001 4.10218 5.04001 4.5V21C5.04007 21.1338 5.07452 21.2652 5.13978 21.3805C5.20504 21.4958 5.29873 21.5908 5.41113 21.6557C5.52353 21.7206 5.65055 21.7529 5.779 21.7494C5.90745 21.7458 6.03265 21.7066 6.14161 21.6356L11.52 18.1341L16.8993 21.6356C17.0083 21.7063 17.1334 21.7454 17.2617 21.7488C17.39 21.7522 17.5168 21.7198 17.6291 21.655C17.7414 21.5902 17.8349 21.4953 17.9002 21.3801C17.9654 21.2649 17.9998 21.1337 18 21V4.5C18 4.10218 17.8483 3.72064 17.5782 3.43934C17.3082 3.15804 16.9419 3 16.56 3ZM16.56 19.6472L11.9007 16.6144C11.7863 16.5399 11.6541 16.5004 11.5191 16.5004C11.3842 16.5004 11.2519 16.5399 11.1375 16.6144L6.48001 19.6472V4.5H16.56V19.6472Z" fill="#3C6FE2"/>
</svg>
